<?xml version="1.0" encoding="UTF-8"?>
<svg version="1.1" xmlns="http://www.w3.org/2000/svg" width="838" height="386">
<path d="M0 0 C276.54 0 553.08 0 838 0 C838 127.38 838 254.76 838 386 C561.46 386 284.92 386 0 386 C0 258.62 0 131.24 0 0 Z " fill="#FDFDFD" transform="translate(0,0)"/>
<path d="M0 0 C11.79047465 8.66115347 21.01464006 21.54202287 23.28125 36.23828125 C24.94143719 58.44561665 23.36890124 79.49107209 8.36889648 97.10327148 C4.51867785 101.42746647 1.03535731 104.55558805 -4.34375 106.92578125 C-6.90588285 108.13361015 -6.90588285 108.13361015 -8.71875 110.23828125 C-9.54460539 114.43637949 -9.60209499 118.38944101 -9.609375 122.65234375 C-9.70528007 138.88085251 -17.28693554 154.16934005 -28.64453125 165.51171875 C-42.54560441 178.41054835 -63.36535575 183.65574542 -81.84375 183.55078125 C-82.84494873 183.54731689 -83.84614746 183.54385254 -84.87768555 183.5402832 C-93.46566076 183.41577992 -101.38598859 182.31422992 -109.71875 180.23828125 C-110.63527344 180.03332031 -111.55179687 179.82835937 -112.49609375 179.6171875 C-125.81591943 176.22936454 -138.71467483 167.02147081 -146.09375 155.42578125 C-155.3656294 138.4407732 -157.99616705 118.0534203 -152.71875 99.23828125 C-147.90166134 84.05220515 -139.93764189 72.5227313 -126.71875 63.23828125 C-126.02104492 62.9647583 -125.32333984 62.69123535 -124.60449219 62.40942383 C-122.52267869 61.41142467 -122.52267869 61.41142467 -122.16040039 59.22973633 C-122.12938232 58.41400146 -122.09836426 57.5982666 -122.06640625 56.7578125 C-122.01524658 55.84813721 -121.96408691 54.93846191 -121.91137695 54.0012207 C-121.86843506 53.02757568 -121.82549316 52.05393066 -121.78125 51.05078125 C-120.56633191 33.31872822 -114.86797077 17.74867348 -101.71875 5.23828125 C-90.30795712 -4.1050509 -77.91495828 -8.72966988 -63.71875 -11.76171875 C-62.92170654 -11.93823975 -62.12466309 -12.11476074 -61.3034668 -12.29663086 C-39.76901033 -16.17149055 -18.14910021 -11.76040832 0 0 Z " fill="#C52228" transform="translate(461.71875,44.76171875)"/>
<path d="M0 0 C14.19 0 28.38 0 43 0 C49.35129669 18.55434988 55.69708576 37.1096631 61.95269585 55.69645691 C62.70315351 57.92575102 63.45415018 60.1548628 64.20533752 62.38391113 C64.45533854 63.12578171 64.70533957 63.86765228 64.96291637 64.63200378 C65.46986609 66.13633355 65.97683495 67.64065685 66.48382282 69.14497375 C67.72897859 72.84055517 68.97251407 76.53666673 70.21243286 80.23400879 C76.48968447 98.94989303 83.00889126 117.53660589 90 136 C93.7724719 128.25671723 97.52548617 120.50454865 101.24571228 112.73602295 C103.13442942 108.79367153 105.04588559 104.86334817 106.96875 100.9375 C107.7932702 99.20909737 108.61631342 97.47998896 109.4375 95.75 C109.820271 94.98526367 110.20304199 94.22052734 110.59741211 93.43261719 C115.49651929 82.91233074 110.64850265 73.21748944 107 62.9375 C106.50121443 61.51124057 106.00292919 60.08480607 105.50512695 58.65820312 C100.90662352 45.53353399 96.04510521 32.50854759 91.04931641 19.53027344 C90.4623272 18.00530526 89.87717333 16.47962887 89.29418945 14.953125 C88.56591648 13.04748112 87.83020098 11.14468587 87.09375 9.2421875 C86 6 86 6 85 0 C98.53 0 112.06 0 126 0 C127.36125 5.32125 127.36125 5.32125 128.75 10.75 C130.68149447 18.2401987 132.68940793 25.6180478 135.3359375 32.890625 C136 35 136 35 136 38 C136.66 38 137.32 38 138 38 C138.36867187 36.8140625 138.73734375 35.628125 139.1171875 34.40625 C141.16458923 28.2664507 143.73178856 22.34909768 146.29833984 16.41308594 C147.13455574 14.47788577 147.96412017 12.53992796 148.79296875 10.6015625 C152.8602436 1.1397564 152.8602436 1.1397564 154 0 C156.8843382 -0.08865208 159.74462158 -0.11521296 162.62890625 -0.09765625 C163.92525246 -0.09553383 163.92525246 -0.09553383 165.24778748 -0.09336853 C168.01939292 -0.08775239 170.7909188 -0.07519719 173.5625 -0.0625 C175.4368478 -0.05748708 177.31119685 -0.05292381 179.18554688 -0.04882812 C183.79039544 -0.03777772 188.39518421 -0.0205023 193 0 C188.89677927 8.71364342 184.7813042 17.41952958 180.5546875 26.07421875 C177.00876086 33.3364998 173.49116399 40.61196406 170.003479 47.90240479 C169.32746201 49.31549865 168.65064721 50.72821109 167.9730835 52.14056396 C165.9393188 56.38418572 163.92862751 60.63750582 161.94784546 64.90612793 C161.32213766 66.24711166 160.6897893 67.58501934 160.05044556 68.91955566 C159.16065449 70.78069437 158.29645772 72.65181539 157.4375 74.52734375 C156.94121094 75.58687256 156.44492188 76.64640137 155.93359375 77.73803711 C153.82536834 85.10414584 156.78532052 91.94697925 159.30859375 98.86328125 C159.79876732 100.23398018 159.79876732 100.23398018 160.29884338 101.63237 C160.98674171 103.55067207 161.67861592 105.4675526 162.37426758 107.38305664 C163.43941532 110.31777714 164.49116371 113.25704296 165.54101562 116.19726562 C166.21276276 118.06538443 166.8852625 119.93323283 167.55859375 121.80078125 C167.87324081 122.67889969 168.18788788 123.55701813 168.5120697 124.46174622 C168.95746849 125.6839814 168.95746849 125.6839814 169.41186523 126.9309082 C169.6708812 127.64624222 169.92989716 128.36157623 170.19676208 129.09858704 C171.04301934 131.26731739 171.04301934 131.26731739 173 134 C181.87824373 115.74927222 190.59370443 97.43415522 199.08013916 78.99725342 C200.05676461 76.8767495 201.03482664 74.7569126 202.01318359 72.63720703 C210.96028707 53.25032375 219.82742743 33.83122062 228.50878906 14.32373047 C230.65456437 9.54105445 232.83085375 4.77212176 235 0 C249.19 0 263.38 0 278 0 C272.83432632 10.9053111 267.71124768 21.6928837 262.11517334 32.36016846 C256.76422073 42.57292478 251.55216801 52.83159914 246.63183594 63.25976562 C241.64715255 73.80581305 236.50551034 84.27432358 231.375 94.75 C229.4528054 98.67692696 227.53103112 102.60405951 225.609375 106.53125 C224.89820526 107.98454208 224.89820526 107.98454208 224.17266846 109.4671936 C220.00074465 117.99448256 215.83828465 126.52633942 211.68780518 135.06408691 C210.99610843 136.48672673 210.30403042 137.90918125 209.61151123 139.3314209 C205.51582208 147.74395368 201.47907936 156.18033607 197.5440979 164.66949463 C195.10821684 169.89178316 195.10821684 169.89178316 194 171 C192.49581261 171.09311889 190.98728644 171.11746028 189.48022461 171.11352539 C188.03884377 171.11341209 188.03884377 171.11341209 186.56834412 171.11329651 C185.523564 171.10813522 184.47878387 171.10297394 183.40234375 171.09765625 C181.80635094 171.09553383 181.80635094 171.09553383 180.17811584 171.09336853 C176.76454917 171.08775064 173.351047 171.07519511 169.9375 171.0625 C167.62955824 171.05748731 165.32161545 171.052924 163.01367188 171.04882812 C157.34242574 171.0377754 151.67121747 171.02101987 146 171 C145.68248779 169.98164063 145.36497559 168.96328125 145.0378418 167.9140625 C143.84922344 164.10393417 142.65759129 160.29475384 141.46508789 156.48583984 C140.9512556 154.84318981 140.43822011 153.20029029 139.92602539 151.55712891 C139.18589791 149.18324388 138.44282489 146.81029733 137.69921875 144.4375 C137.47409103 143.71320801 137.24896332 142.98891602 137.01701355 142.24267578 C135.50390214 137.42742756 133.80686251 132.71315098 132 128 C129.03694197 131.51986672 127.30778974 135.46902607 125.49609375 139.65234375 C125.17214127 140.38949112 124.84818878 141.12663849 124.51441956 141.88612366 C123.48390722 144.23448286 122.46071729 146.5859545 121.4375 148.9375 C120.74590095 150.51517491 120.05384833 152.09265108 119.36132812 153.66992188 C116.84075928 159.42209065 114.33281884 165.16795291 112 171 C95.83 171 79.66 171 63 171 C61.618125 167.1225 60.23625 163.245 58.8125 159.25 C57.63171121 155.94551004 56.44989952 152.64138971 55.2673645 149.33752441 C54.0394778 145.90661681 52.81250662 142.47539372 51.58886719 139.04296875 C37.30388234 98.98949143 22.26377337 59.20313535 6.93359375 19.5390625 C6.54466949 18.53263451 6.54466949 18.53263451 6.14788818 17.50587463 C4.36804906 12.91449954 2.53552122 8.34675426 0.64868164 3.79833984 C0 2 0 2 0 0 Z " fill="#010101" transform="translate(49,42)"/>
<path d="M0 0 C11.28377944 -0.04648584 22.56753583 -0.08195145 33.85139179 -0.10362434 C39.09179904 -0.11402995 44.33214042 -0.12812989 49.57250977 -0.15087891 C54.63645761 -0.17272271 59.70034238 -0.18459283 64.76433372 -0.18975449 C66.68947529 -0.19342962 68.61461369 -0.20060586 70.53972816 -0.21146011 C89.78754462 -0.31559793 106.04183622 0.99634382 120.75 14.62109375 C128.31312823 22.50565493 130.39172124 33.80846527 130.2734375 44.359375 C129.30489633 57.25480886 124.06611317 68.44219739 114.75 77.375 C106.11598595 84.50934551 95.64002055 87.21961507 85 90 C90.88761084 105.67930588 99.8914955 120.3050306 108.17480469 134.79492188 C111.23927864 140.17619717 114.27155345 145.57526184 117.28970337 150.9826355 C117.96896389 152.19788659 118.64992135 153.41219081 119.33261108 154.6255188 C120.2843154 156.31712275 121.23018714 158.01200417 122.17578125 159.70703125 C122.72145752 160.6813208 123.26713379 161.65561035 123.8293457 162.65942383 C125 165 125 165 125 167 C111.47 167 97.94 167 84 167 C82.081875 162.194375 80.16375 157.38875 78.1875 152.4375 C71.05100051 134.87485855 62.8650805 117.9012431 54.42082214 100.9370575 C50.15734905 92.35001014 46.07590885 83.6772538 42 75 C42.69399399 75.02189392 43.38798798 75.04378784 44.10301208 75.06634521 C65.34293808 76.04435704 65.34293808 76.04435704 84 67 C90.19244698 61.00681493 93.06761442 55.13861798 93.4375 46.5 C93.25578639 41.25211091 92.34383508 37.13282987 89 33 C81.79529898 26.75167522 73.09526683 25.72031205 63.90625 25.5859375 C62.65805481 25.55688828 62.65805481 25.55688828 61.38464355 25.5272522 C58.75652958 25.46801674 56.12837044 25.4212979 53.5 25.375 C51.70571127 25.3367685 49.91143987 25.29771385 48.1171875 25.2578125 C43.74493439 25.16236219 39.37259555 25.07812743 35 25 C35.01080849 26.41123642 35.01080849 26.41123642 35.02183533 27.85098267 C35.06314377 37.56867323 34.84895152 47.25440948 34.47497749 56.96439743 C34.37523673 59.55629488 34.27937037 62.14831381 34.18431091 64.74038696 C33.98030244 70.28538192 33.77173315 75.83020006 33.5625 81.375 C33.28951481 88.61185364 33.01891796 95.84878708 32.75390625 103.0859375 C32.72121265 103.97708 32.68851906 104.8682225 32.65483475 105.78636932 C31.9124398 126.18726148 31.4493774 146.59041269 31 167 C18.46 167 5.92 167 -7 167 C-6.53389954 157.05652361 -5.95511175 147.16341329 -5.0625 137.25 C-3.53431415 119.86670587 -2.78795255 102.42958775 -2 85 C-1.94457031 83.78376953 -1.88914062 82.56753906 -1.83203125 81.31445312 C-0.64543108 54.23110597 -0.43844381 27.10319525 0 0 Z " fill="#010101" transform="translate(506,44)"/>
<path d="M0 0 C0.99 14.355 0.99 14.355 2 29 C-2.60007664 28.23332056 -6.83643634 27.29423091 -11.3125 26.0625 C-13.87220005 25.35905056 -16.43084044 24.66665503 -19 24 C-19.70793701 23.81397217 -20.41587402 23.62794434 -21.14526367 23.4362793 C-26.70444218 22.07585403 -31.97271642 21.64893192 -37.6875 21.6875 C-38.55890625 21.69241455 -39.4303125 21.6973291 -40.328125 21.70239258 C-58.68130479 22.03181729 -75.69925319 28.18851628 -88.6875 41.5 C-101.23669463 56.86142379 -104.60137919 75.68525196 -103 95 C-100.80619389 108.1471666 -95.95236213 120.75061029 -85.25 129.3125 C-62.83342252 144.40225838 -38.75660169 142.47185945 -13.40722656 137.54003906 C-10.53006794 136.89457508 -7.78999689 135.94706316 -5 135 C-3.68 135 -2.36 135 -1 135 C-1.75126418 140.41054682 -2.60271677 145.7993586 -3.5 151.1875 C-3.63019531 151.98091797 -3.76039063 152.77433594 -3.89453125 153.59179688 C-4.02214844 154.35943359 -4.14976562 155.12707031 -4.28125 155.91796875 C-4.45237305 156.95087036 -4.45237305 156.95087036 -4.62695312 158.00463867 C-5.00529397 160.02831653 -5.48054924 162.00830763 -6 164 C-28.20721212 168.76788142 -53.69646566 171.07044378 -76 166 C-77.42119141 165.72542969 -77.42119141 165.72542969 -78.87109375 165.4453125 C-99.00953564 161.11273934 -118.29133214 149.88078827 -129.8125 132.5625 C-142.07915719 112.18402113 -145.30544012 87.08035415 -140 64 C-139.82855469 63.06800781 -139.65710938 62.13601562 -139.48046875 61.17578125 C-135.53680338 42.11897246 -123.16691767 23.51244495 -107.19067383 12.52661133 C-78.04815765 -6.61630036 -32.7138593 -13.08554372 0 0 Z " fill="#020202" transform="translate(787,46)"/>
<path d="M0 0 C0.79921875 0.25652344 1.5984375 0.51304688 2.421875 0.77734375 C12.95392909 4.495478 19.1342838 11.05569252 24 21 C29.28003778 33.8288418 29.71063951 47.92391448 25 61 C22.89607404 65.78401539 20.48190716 70.40337195 18 75 C15.28674973 72.38702202 12.97252746 69.72459457 10.75 66.6875 C0.90902183 54.06133933 -13.27603974 46.70639999 -29 44 C-30.5159375 43.7215625 -30.5159375 43.7215625 -32.0625 43.4375 C-37.5289386 42.83011793 -42.94262123 42.89510628 -48.4375 42.9375 C-49.55060547 42.94201172 -50.66371094 42.94652344 -51.81054688 42.95117188 C-54.54042101 42.96288807 -57.27018174 42.97929301 -60 43 C-58.97416338 29.14279712 -55.47751633 17.91892029 -44.984375 8.1171875 C-32.12745117 -1.95575676 -15.68920034 -5.22973345 0 0 Z " fill="#FEFCFC" transform="translate(429,54)"/>
<path d="M0 0 C2.34330407 2.21739519 4.17937864 4.5733389 6.0625 7.1875 C17.13750869 21.42350076 33.23388823 27.98938453 50.6640625 30.53515625 C55.9256844 31.16760496 61.20780508 31.3506733 66.5 31.5625 C67.51320313 31.60568359 68.52640625 31.64886719 69.5703125 31.69335938 C72.0467679 31.79849192 74.52330749 31.90063837 77 32 C77.49936124 43.63217954 73.43361191 53.99949931 66 63 C58.22020081 71.18346802 47.72811764 75.34865523 36.5703125 76.2890625 C23.906626 76.59387771 11.03860001 73.66219199 1.3125 65.0625 C-8.6353075 54.33493562 -10.6490979 41.14824962 -10.13183594 27.09277344 C-9.52405496 17.4448131 -7.07360174 7.07360174 0 0 Z " fill="#FEFDFD" transform="translate(346,132)"/>
<path d="M0 0 C4.01678215 3.3759023 6.76863061 7.72837328 7.30078125 12.953125 C7.35043945 26.923632 7.35043945 26.923632 2.59375 32.7109375 C-2.77557852 37.90297688 -9.67293666 40.06225582 -17.0625 40.3125 C-25.35081273 39.6546974 -31.38377652 38.55987078 -37 32 C-41.04707048 25.47246696 -40.9453474 18.10146931 -39.56640625 10.66015625 C-37.68517049 4.57243058 -33.4322087 0.87923214 -27.9453125 -2.125 C-18.96372997 -6.16490861 -8.44500044 -4.37690007 0 0 Z " fill="#040404" transform="translate(579,256)"/>
<path d="M0 0 C4.01678215 3.3759023 6.76863061 7.72837328 7.30078125 12.953125 C7.35043945 26.923632 7.35043945 26.923632 2.59375 32.7109375 C-2.77557852 37.90297688 -9.67293666 40.06225582 -17.0625 40.3125 C-25.35081273 39.6546974 -31.38377652 38.55987078 -37 32 C-41.04707048 25.47246696 -40.9453474 18.10146931 -39.56640625 10.66015625 C-37.68517049 4.57243058 -33.4322087 0.87923214 -27.9453125 -2.125 C-18.96372997 -6.16490861 -8.44500044 -4.37690007 0 0 Z " fill="#040404" transform="translate(362,256)"/>
<path d="M0 0 C2.97 0 5.94 0 9 0 C10.46763898 3.97579521 11.92239053 7.95619152 13.375 11.9375 C13.99375 13.61295898 13.99375 13.61295898 14.625 15.32226562 C16.87611576 21.51283398 18.75133186 27.53025245 20 34 C23.53842277 32.23078861 24.54514292 28.46893537 26.07421875 24.96875 C27.50437291 20.38260165 26.66345784 17.38947685 25 13 C24.65582031 12.03191406 24.31164062 11.06382812 23.95703125 10.06640625 C23.26016509 8.13178504 22.54412294 6.20391025 21.8046875 4.28515625 C21 2 21 2 21 0 C23.97 0 26.94 0 30 0 C30.66 2.97 31.32 5.94 32 9 C34.61047801 7.694761 34.68066423 6.64173426 35.625 3.9375 C36.07875 2.638125 36.5325 1.33875 37 0 C39.97 0 42.94 0 46 0 C45.23193755 1.87613675 44.46041323 3.75085642 43.6875 5.625 C43.23503906 6.72457031 42.78257813 7.82414062 42.31640625 8.95703125 C41 12 41 12 39.125 15.3125 C37.59257429 18.97329475 38.15100063 21.14684902 39 25 C39.17273437 25.80695313 39.34546875 26.61390625 39.5234375 27.4453125 C39.99706468 29.63498021 40.49047763 31.81845279 41 34 C41.66 34 42.32 34 43 34 C43.27255615 33.14317627 43.5451123 32.28635254 43.82592773 31.40356445 C44.9913703 28.02501696 46.33405397 24.80824964 47.78515625 21.54296875 C48.58083008 19.75149414 48.58083008 19.75149414 49.39257812 17.92382812 C49.66658447 17.31095947 49.94059082 16.69809082 50.22290039 16.06665039 C51.06719396 14.17699422 51.90594234 12.28494467 52.74414062 10.39257812 C56.87060451 1.12939549 56.87060451 1.12939549 58 0 C59.51928038 -0.07179964 61.04167482 -0.08392007 62.5625 -0.0625 C63.38878906 -0.05347656 64.21507813 -0.04445312 65.06640625 -0.03515625 C65.70449219 -0.02355469 66.34257813 -0.01195312 67 0 C65.62014345 4.42533132 63.89954376 8.51172811 61.8828125 12.68359375 C61.58438446 13.30218765 61.28595642 13.92078156 60.97848511 14.55812073 C60.3498736 15.85901127 59.71948432 17.15904412 59.08740234 18.45825195 C58.13043121 20.42633033 57.18003287 22.39747966 56.23046875 24.36914062 C53.32931428 30.36320095 50.34929579 36.24365503 47 42 C43.37 42 39.74 42 36 42 C33.125 34.375 33.125 34.375 32 31 C30.02 34.63 28.04 38.26 26 42 C22.37 42 18.74 42 15 42 C11.92151235 34.36974847 8.93168838 26.70744841 5.99853516 19.02026367 C5.49441714 17.70176323 4.98818967 16.3840676 4.47998047 15.06713867 C3.73707533 13.14160629 3.0006508 11.21370787 2.265625 9.28515625 C1.83024414 8.14957275 1.39486328 7.01398926 0.94628906 5.84399414 C0 3 0 3 0 0 Z " fill="#060606" transform="translate(1,253)"/>
<path d="M0 0 C3.67585283 3.77010546 5.13891336 6.95717051 5.25 12.1875 C5.16218776 18.17824633 3.84185053 22.88728909 -0.125 27.4375 C-4.58561456 29.86174704 -9.17126452 30.81707533 -14.13671875 29.3828125 C-16.0625 28.5625 -16.0625 28.5625 -19 27 C-19 26.34 -19 25.68 -19 25 C-19.66 25 -20.32 25 -21 25 C-21 30.94 -21 36.88 -21 43 C-23.64 43 -26.28 43 -29 43 C-29.13965571 28.29962476 -28.80667342 13.67888168 -28 -1 C-18.65246687 -3.95867694 -8.88452239 -4.68456635 0 0 Z " fill="#070707" transform="translate(337,341)"/>
<path d="M0 0 C3.67585283 3.77010546 5.13891336 6.95717051 5.25 12.1875 C5.16218776 18.17824633 3.84185053 22.88728909 -0.125 27.4375 C-4.58561456 29.86174704 -9.17126452 30.81707533 -14.13671875 29.3828125 C-16.0625 28.5625 -16.0625 28.5625 -19 27 C-19 26.34 -19 25.68 -19 25 C-19.66 25 -20.32 25 -21 25 C-21 30.94 -21 36.88 -21 43 C-23.64 43 -26.28 43 -29 43 C-29.13965571 28.29962476 -28.80667342 13.67888168 -28 -1 C-18.65246687 -3.95867694 -8.88452239 -4.68456635 0 0 Z " fill="#070707" transform="translate(403,266)"/>
<path d="M0 0 C2.64 0 5.28 0 8 0 C8.1044444 14.0373272 8.18400916 28.00332032 7 42 C4.36 42 1.72 42 -1 42 C-1.33 40.68 -1.66 39.36 -2 38 C-2.61875 38.639375 -3.2375 39.27875 -3.875 39.9375 C-6.56959974 42.55284681 -7.41192599 42.95387655 -11.1875 43.25 C-15.60135645 42.96056679 -18.20418095 42.29181528 -22 40 C-25.24224942 35.85182795 -26.69199456 31.25750764 -26.3828125 26.01171875 C-25.39428203 20.81689026 -22.98631121 16.59088837 -19.0625 13.0625 C-14.08388887 9.70955781 -9.91779685 9.78480739 -4 10 C-2.68 10.33 -1.36 10.66 0 11 C0 7.37 0 3.74 0 0 Z " fill="#060606" transform="translate(710,253)"/>
<path d="M0 0 C2.64 0 5.28 0 8 0 C8.1044444 14.0373272 8.18400916 28.00332032 7 42 C4.36 42 1.72 42 -1 42 C-1.33 40.68 -1.66 39.36 -2 38 C-2.61875 38.639375 -3.2375 39.27875 -3.875 39.9375 C-6.56959974 42.55284681 -7.41192599 42.95387655 -11.1875 43.25 C-15.60135645 42.96056679 -18.20418095 42.29181528 -22 40 C-25.24224942 35.85182795 -26.69199456 31.25750764 -26.3828125 26.01171875 C-25.39428203 20.81689026 -22.98631121 16.59088837 -19.0625 13.0625 C-14.08388887 9.70955781 -9.91779685 9.78480739 -4 10 C-2.68 10.33 -1.36 10.66 0 11 C0 7.37 0 3.74 0 0 Z " fill="#060606" transform="translate(510,253)"/>
<path d="M0 0 C4.10803467 4.67859504 5.36615914 7.42251941 5.27734375 13.55078125 C4.64220446 19.1596874 2.33423488 22.91593416 -2 26.4375 C-7.90576254 29.51341799 -13.054315 29.5586644 -19.625 28.3125 C-24.04643576 26.59305276 -26.68495095 24.2133572 -29.109375 20.1328125 C-31.0384818 15.51310939 -30.93382813 10.29598239 -29.0546875 5.67578125 C-26.17525736 0.7771281 -23.24330125 -1.888011 -17.8125 -3.75 C-11.55504539 -4.30621819 -5.0123042 -4.12777993 0 0 Z " fill="#070707" transform="translate(376,342)"/>
<path d="M0 0 C4.10803467 4.67859504 5.36615914 7.42251941 5.27734375 13.55078125 C4.64220446 19.1596874 2.33423488 22.91593416 -2 26.4375 C-7.90576254 29.51341799 -13.054315 29.5586644 -19.625 28.3125 C-24.04643576 26.59305276 -26.68495095 24.2133572 -29.109375 20.1328125 C-31.0384818 15.51310939 -30.93382813 10.29598239 -29.0546875 5.67578125 C-26.17525736 0.7771281 -23.24330125 -1.888011 -17.8125 -3.75 C-11.55504539 -4.30621819 -5.0123042 -4.12777993 0 0 Z " fill="#070707" transform="translate(753,267)"/>
<path d="M0 0 C4.10803467 4.67859504 5.36615914 7.42251941 5.27734375 13.55078125 C4.64220446 19.1596874 2.33423488 22.91593416 -2 26.4375 C-7.90576254 29.51341799 -13.054315 29.5586644 -19.625 28.3125 C-24.04643576 26.59305276 -26.68495095 24.2133572 -29.109375 20.1328125 C-31.0384818 15.51310939 -30.93382813 10.29598239 -29.0546875 5.67578125 C-26.17525736 0.7771281 -23.24330125 -1.888011 -17.8125 -3.75 C-11.55504539 -4.30621819 -5.0123042 -4.12777993 0 0 Z " fill="#070707" transform="translate(459,267)"/>
<path d="M0 0 C4.10803467 4.67859504 5.36615914 7.42251941 5.27734375 13.55078125 C4.64220446 19.1596874 2.33423488 22.91593416 -2 26.4375 C-7.90576254 29.51341799 -13.054315 29.5586644 -19.625 28.3125 C-24.04643576 26.59305276 -26.68495095 24.2133572 -29.109375 20.1328125 C-31.0384818 15.51310939 -30.93382813 10.29598239 -29.0546875 5.67578125 C-26.17525736 0.7771281 -23.24330125 -1.888011 -17.8125 -3.75 C-11.55504539 -4.30621819 -5.0123042 -4.12777993 0 0 Z " fill="#070707" transform="translate(173,267)"/>
<path d="M0 0 C6.249375 -0.1546875 6.249375 -0.1546875 12.625 -0.3125 C13.92775879 -0.35802002 15.23051758 -0.40354004 16.57275391 -0.45043945 C26.13655246 -0.56519319 26.13655246 -0.56519319 29.7734375 2.39453125 C32.82518037 5.96560581 33.41287483 8.1461051 33.34375 12.8984375 C32.73191348 16.63898352 30.72285815 18.51391212 28 21 C26.02030835 21.72475198 24.02126741 22.40089858 22 23 C22.2673999 23.50450684 22.5347998 24.00901367 22.81030273 24.52880859 C24.01960833 26.81074539 25.22855834 29.09287038 26.4375 31.375 C26.85837891 32.1690625 27.27925781 32.963125 27.71289062 33.78125 C28.11572266 34.54179687 28.51855469 35.30234375 28.93359375 36.0859375 C29.30540771 36.7876709 29.67722168 37.4894043 30.06030273 38.21240234 C30.72031748 39.46795651 31.36564431 40.73128862 32 42 C28.37 42 24.74 42 21 42 C19.89549745 39.47931337 18.79138957 36.95845506 17.6875 34.4375 C17.37876953 33.73302734 17.07003906 33.02855469 16.75195312 32.30273438 C14.81440476 27.876966 12.89750744 23.44308665 11 19 C11.69867188 18.87882812 12.39734375 18.75765625 13.1171875 18.6328125 C14.02726563 18.46523438 14.93734375 18.29765625 15.875 18.125 C17.23238281 17.88136719 17.23238281 17.88136719 18.6171875 17.6328125 C21.16505988 17.16955297 21.16505988 17.16955297 23 15 C23.33333333 12.5 23.33333333 12.5 23 10 C20.05066065 6.62003248 20.05066065 6.62003248 9 7 C8.67 18.55 8.34 30.1 8 42 C5.03 42 2.06 42 -1 42 C-0.67 28.14 -0.34 14.28 0 0 Z " fill="#050505" transform="translate(208,328)"/>
<path d="M0 0 C1.2375 0.4125 2.475 0.825 3.75 1.25 C4.54921875 1.50652344 5.3484375 1.76304688 6.171875 2.02734375 C16.65972441 5.72987241 22.93239616 12.29806405 27.75 22.25 C28.41015625 24.55078125 28.41015625 24.55078125 28.75 26.25 C21.94060913 29.65469543 11.32875415 27.43115021 4.34375 25.22265625 C-6.78480884 21.04944668 -13.69471691 15.76325378 -19.40234375 5.265625 C-20.25 3.25 -20.25 3.25 -20.25 0.25 C-14.84091208 -2.45454396 -5.81172137 -1.35128501 0 0 Z " fill="#FDF9F9" transform="translate(392.25,116.75)"/>
<path d="M0 0 C4.40608743 2.16298837 7.1987497 4.39680479 9 9 C9.7194304 14.96527706 9.50196737 19.92818519 6 25 C1.66722551 28.91006478 -0.93104653 30.3181752 -6.83984375 30.2109375 C-11.75124078 29.73134358 -15.03075598 27.99409643 -18.4375 24.5 C-20.63130543 19.58587583 -20.77395605 15.29922968 -20 10 C-15.91107659 1.35035432 -9.13181211 -1.46999902 0 0 Z " fill="#F9F9F9" transform="translate(568,259)"/>
<path d="M0 0 C4.40608743 2.16298837 7.1987497 4.39680479 9 9 C9.7194304 14.96527706 9.50196737 19.92818519 6 25 C1.66722551 28.91006478 -0.93104653 30.3181752 -6.83984375 30.2109375 C-11.75124078 29.73134358 -15.03075598 27.99409643 -18.4375 24.5 C-20.63130543 19.58587583 -20.77395605 15.29922968 -20 10 C-15.91107659 1.35035432 -9.13181211 -1.46999902 0 0 Z " fill="#F9F9F9" transform="translate(351,259)"/>
<path d="M0 0 C0 2.31 0 4.62 0 7 C-1.00160156 6.95359375 -2.00320313 6.9071875 -3.03515625 6.859375 C-13.2501601 6.35093069 -13.2501601 6.35093069 -22 11 C-25.62823571 15.91567419 -25.69907065 21.11205283 -25 27 C-23.68128272 30.64586543 -22.47626798 31.6860961 -19.25 33.8125 C-13.32021765 36.10209058 -6.26077273 35.21755581 0 35 C-0.33 37.31 -0.66 39.62 -1 42 C-10.15548968 43.92747151 -18.85642356 43.82392432 -27.1875 39.25 C-31.12784885 36.09772092 -33.40780381 32.77658857 -35 28 C-35.53041613 21.11479066 -35.83534093 14.00780678 -32 8 C-23.62002539 -1.06818509 -11.80955573 -3.14921486 0 0 Z " fill="#040404" transform="translate(539,328)"/>
<path d="M0 0 C3.10679749 1.33773574 5.44873594 2.89747189 7 6 C7.0996117 8.69830524 7.14106069 11.36459129 7.125 14.0625 C7.12306641 14.82876709 7.12113281 15.59503418 7.11914062 16.38452148 C7.07891286 21.65491712 6.75944403 26.77882229 6 32 C3.03 32 0.06 32 -3 32 C-2.98952637 31.34402832 -2.97905273 30.68805664 -2.96826172 30.01220703 C-2.92677497 27.04984342 -2.90069738 24.08754084 -2.875 21.125 C-2.85824219 20.09246094 -2.84148438 19.05992187 -2.82421875 17.99609375 C-2.81777344 17.00996094 -2.81132813 16.02382813 -2.8046875 15.0078125 C-2.79421387 14.09660645 -2.78374023 13.18540039 -2.77294922 12.24658203 C-2.78129007 9.79709564 -2.78129007 9.79709564 -5 8 C-8.693507 7.79853598 -11.47940432 7.82646811 -15 9 C-17.21574644 13.83846672 -17.41236113 18.64762783 -17.625 23.875 C-17.68300781 25.050625 -17.68300781 25.050625 -17.7421875 26.25 C-17.83566622 28.16631367 -17.91888495 30.08312319 -18 32 C-20.97 32 -23.94 32 -27 32 C-26.67 21.77 -26.34 11.54 -26 1 C-23.03 1 -20.06 1 -17 1 C-16.67 1.99 -16.34 2.98 -16 4 C-15.21625 3.34 -14.4325 2.68 -13.625 2 C-9.35346089 -0.83419656 -4.95250989 -0.81872935 0 0 Z " fill="#070707" transform="translate(606,338)"/>
<path d="M0 0 C3.10679749 1.33773574 5.44873594 2.89747189 7 6 C7.0996117 8.69830524 7.14106069 11.36459129 7.125 14.0625 C7.12306641 14.82876709 7.12113281 15.59503418 7.11914062 16.38452148 C7.07891286 21.65491712 6.75944403 26.77882229 6 32 C3.03 32 0.06 32 -3 32 C-2.98952637 31.34402832 -2.97905273 30.68805664 -2.96826172 30.01220703 C-2.92677497 27.04984342 -2.90069738 24.08754084 -2.875 21.125 C-2.85824219 20.09246094 -2.84148437 19.05992187 -2.82421875 17.99609375 C-2.81777344 17.00996094 -2.81132812 16.02382813 -2.8046875 15.0078125 C-2.79421387 14.09660645 -2.78374023 13.18540039 -2.77294922 12.24658203 C-2.78129007 9.79709564 -2.78129007 9.79709564 -5 8 C-8.693507 7.79853598 -11.47940432 7.82646811 -15 9 C-17.21574644 13.83846672 -17.41236113 18.64762783 -17.625 23.875 C-17.68300781 25.050625 -17.68300781 25.050625 -17.7421875 26.25 C-17.83566622 28.16631367 -17.91888495 30.08312319 -18 32 C-20.97 32 -23.94 32 -27 32 C-26.67 21.77 -26.34 11.54 -26 1 C-23.03 1 -20.06 1 -17 1 C-16.67 1.99 -16.34 2.98 -16 4 C-15.21625 3.34 -14.4325 2.68 -13.625 2 C-9.35346089 -0.83419656 -4.95250989 -0.81872935 0 0 Z " fill="#070707" transform="translate(413,338)"/>
<path d="M0 0 C3.10679749 1.33773574 5.44873594 2.89747189 7 6 C7.0996117 8.69830524 7.14106069 11.36459129 7.125 14.0625 C7.12306641 14.82876709 7.12113281 15.59503418 7.11914062 16.38452148 C7.07891286 21.65491712 6.75944403 26.77882229 6 32 C3.03 32 0.06 32 -3 32 C-2.98952637 31.34402832 -2.97905273 30.68805664 -2.96826172 30.01220703 C-2.92677497 27.04984342 -2.90069738 24.08754084 -2.875 21.125 C-2.85824219 20.09246094 -2.84148437 19.05992187 -2.82421875 17.99609375 C-2.81777344 17.00996094 -2.81132812 16.02382813 -2.8046875 15.0078125 C-2.79421387 14.09660645 -2.78374023 13.18540039 -2.77294922 12.24658203 C-2.78129007 9.79709564 -2.78129007 9.79709564 -5 8 C-8.693507 7.79853598 -11.47940432 7.82646811 -15 9 C-17.21574644 13.83846672 -17.41236113 18.64762783 -17.625 23.875 C-17.68300781 25.050625 -17.68300781 25.050625 -17.7421875 26.25 C-17.83566622 28.16631367 -17.91888495 30.08312319 -18 32 C-20.97 32 -23.94 32 -27 32 C-26.67 21.77 -26.34 11.54 -26 1 C-23.03 1 -20.06 1 -17 1 C-16.67 1.99 -16.34 2.98 -16 4 C-15.21625 3.34 -14.4325 2.68 -13.625 2 C-9.35346089 -0.83419656 -4.95250989 -0.81872935 0 0 Z " fill="#070707" transform="translate(293,263)"/>
<path d="M0 0 C3.10679749 1.33773574 5.44873594 2.89747189 7 6 C7.0996117 8.69830524 7.14106069 11.36459129 7.125 14.0625 C7.12306641 14.82876709 7.12113281 15.59503418 7.11914062 16.38452148 C7.07891286 21.65491712 6.75944403 26.77882229 6 32 C3.03 32 0.06 32 -3 32 C-2.98952637 31.34402832 -2.97905273 30.68805664 -2.96826172 30.01220703 C-2.92677497 27.04984342 -2.90069738 24.08754084 -2.875 21.125 C-2.85824219 20.09246094 -2.84148437 19.05992187 -2.82421875 17.99609375 C-2.81777344 17.00996094 -2.81132812 16.02382813 -2.8046875 15.0078125 C-2.79421387 14.09660645 -2.78374023 13.18540039 -2.77294922 12.24658203 C-2.78129007 9.79709564 -2.78129007 9.79709564 -5 8 C-8.693507 7.79853598 -11.47940432 7.82646811 -15 9 C-17.21574644 13.83846672 -17.41236113 18.64762783 -17.625 23.875 C-17.68300781 25.050625 -17.68300781 25.050625 -17.7421875 26.25 C-17.83566622 28.16631367 -17.91888495 30.08312319 -18 32 C-20.97 32 -23.94 32 -27 32 C-26.67 21.77 -26.34 11.54 -26 1 C-23.03 1 -20.06 1 -17 1 C-16.67 1.99 -16.34 2.98 -16 4 C-15.21625 3.34 -14.4325 2.68 -13.625 2 C-9.35346089 -0.83419656 -4.95250989 -0.81872935 0 0 Z " fill="#070707" transform="translate(209,263)"/>
<path d="M0 0 C4.22901914 4.77120108 4 6.18374084 4 13 C-3.59 13 -11.18 13 -19 13 C-17.74352954 20.32733317 -17.74352954 20.32733317 -15.4375 23 C-10.28716991 25.11295594 -4.29943772 24.36759683 1 23 C0.67 24.98 0.34 26.96 0 29 C-7.00479341 30.86794491 -14.59192989 30.90418126 -21.30859375 28.0546875 C-25.08416304 25.70040642 -26.6431336 22.0705992 -28 18 C-28.53939581 11.63512939 -27.62929698 7.31432772 -24 2 C-17.29188885 -4.70811115 -8.03670382 -4.54907763 0 0 Z " fill="#070707" transform="translate(669,341)"/>
<path d="M0 0 C4.22901914 4.77120108 4 6.18374084 4 13 C-3.59 13 -11.18 13 -19 13 C-17.74352954 20.32733317 -17.74352954 20.32733317 -15.4375 23 C-10.28716991 25.11295594 -4.29943772 24.36759683 1 23 C0.67 24.98 0.34 26.96 0 29 C-7.00479341 30.86794491 -14.59192989 30.90418126 -21.30859375 28.0546875 C-25.08416304 25.70040642 -26.6431336 22.0705992 -28 18 C-28.53939581 11.63512939 -27.62929698 7.31432772 -24 2 C-17.29188885 -4.70811115 -8.03670382 -4.54907763 0 0 Z " fill="#070707" transform="translate(571,341)"/>
<path d="M0 0 C4.22901914 4.77120108 4 6.18374084 4 13 C-3.59 13 -11.18 13 -19 13 C-17.74352954 20.32733317 -17.74352954 20.32733317 -15.4375 23 C-10.28716991 25.11295594 -4.29943772 24.36759683 1 23 C0.67 24.98 0.34 26.96 0 29 C-7.00479341 30.86794491 -14.59192989 30.90418126 -21.30859375 28.0546875 C-25.08416304 25.70040642 -26.6431336 22.0705992 -28 18 C-28.53939581 11.63512939 -27.62929698 7.31432772 -24 2 C-17.29188885 -4.70811115 -8.03670382 -4.54907763 0 0 Z " fill="#070707" transform="translate(480,341)"/>
<path d="M0 0 C4.22901914 4.77120108 4 6.18374084 4 13 C-3.59 13 -11.18 13 -19 13 C-17.74352954 20.32733317 -17.74352954 20.32733317 -15.4375 23 C-10.28716991 25.11295594 -4.29943772 24.36759683 1 23 C0.67 24.98 0.34 26.96 0 29 C-7.00479341 30.86794491 -14.59192989 30.90418126 -21.30859375 28.0546875 C-25.08416304 25.70040642 -26.6431336 22.0705992 -28 18 C-28.53939581 11.63512939 -27.62929698 7.31432772 -24 2 C-17.29188885 -4.70811115 -8.03670382 -4.54907763 0 0 Z " fill="#070707" transform="translate(273,341)"/>
<path d="M0 0 C4.22901914 4.77120108 4 6.18374084 4 13 C-3.59 13 -11.18 13 -19 13 C-17.74352954 20.32733317 -17.74352954 20.32733317 -15.4375 23 C-10.28716991 25.11295594 -4.29943772 24.36759683 1 23 C0.67 24.98 0.34 26.96 0 29 C-7.00479341 30.86794491 -14.59192989 30.90418126 -21.30859375 28.0546875 C-25.08416304 25.70040642 -26.6431336 22.0705992 -28 18 C-28.53939581 11.63512939 -27.62929698 7.31432772 -24 2 C-17.29188885 -4.70811115 -8.03670382 -4.54907763 0 0 Z " fill="#070707" transform="translate(817,266)"/>
<path d="M0 0 C4.22901914 4.77120108 4 6.18374084 4 13 C-3.59 13 -11.18 13 -19 13 C-17.74352954 20.32733317 -17.74352954 20.32733317 -15.4375 23 C-10.28716991 25.11295594 -4.29943772 24.36759683 1 23 C0.67 24.98 0.34 26.96 0 29 C-7.00479341 30.86794491 -14.59192989 30.90418126 -21.30859375 28.0546875 C-25.08416304 25.70040642 -26.6431336 22.0705992 -28 18 C-28.53939581 11.63512939 -27.62929698 7.31432772 -24 2 C-17.29188885 -4.70811115 -8.03670382 -4.54907763 0 0 Z " fill="#070707" transform="translate(652,266)"/>
<path d="M0 0 C2.97 0 5.94 0 9 0 C9.26478149 0.90093384 9.26478149 0.90093384 9.53491211 1.82006836 C10.33245 4.52687158 11.13490682 7.23219163 11.9375 9.9375 C12.21529297 10.88302734 12.49308594 11.82855469 12.77929688 12.80273438 C13.18051758 14.15141602 13.18051758 14.15141602 13.58984375 15.52734375 C13.83597412 16.35999756 14.08210449 17.19265137 14.33569336 18.05053711 C14.83330673 19.98038525 14.83330673 19.98038525 16 21 C18.64 14.07 21.28 7.14 24 0 C27.3 0 30.6 0 34 0 C32.42039876 3.66828539 30.83563988 7.33432128 29.25 11 C28.8065625 12.02996094 28.363125 13.05992187 27.90625 14.12109375 C25.42932337 19.83988022 22.85099313 25.45788251 20 31 C16.7 31 13.4 31 10 31 C8.57191631 26.90793253 7.14785715 22.81449396 5.72753906 18.71972656 C5.24362265 17.32643703 4.7586014 15.93353072 4.27246094 14.54101562 C3.57457494 12.5413586 2.8806516 10.54036477 2.1875 8.5390625 C1.76855469 7.33459473 1.34960938 6.13012695 0.91796875 4.88916016 C0 2 0 2 0 0 Z " fill="#080808" transform="translate(590,264)"/>
<path d="M0 0 C0 2.64 0 5.28 0 8 C2.64 8 5.28 8 8 8 C8 9.98 8 11.96 8 14 C5.03 14 2.06 14 -1 14 C-0.67 19.94 -0.34 25.88 0 32 C3.79788698 33.12126781 3.79788698 33.12126781 7 33 C6.67 34.98 6.34 36.96 6 39 C1.3864754 40.53784153 -2.43721569 40.74741859 -6.875 38.625 C-9 37 -9 37 -10 35 C-10.37457015 27.93825096 -9.93303809 20.99778568 -9 14 C-10.32 14 -11.64 14 -13 14 C-13 12.02 -13 10.04 -13 8 C-11.35 8 -9.7 8 -8 8 C-8 6.02 -8 4.04 -8 2 C-1.125 0 -1.125 0 0 0 Z " fill="#070707" transform="translate(631,331)"/>
<path d="M0 0 C1.12921875 -0.00386719 1.12921875 -0.00386719 2.28125 -0.0078125 C4.473535 0.12341583 6.39319137 0.52168662 8.5 1.125 C8.5 3.105 8.5 5.085 8.5 7.125 C7.76394531 7.06699219 7.02789062 7.00898438 6.26953125 6.94921875 C0.00202409 6.64802916 0.00202409 6.64802916 -5.6875 9 C-8.25423204 13.42540006 -8.35912185 17.13030143 -7.5 22.125 C-6.39794623 24.97722791 -6.39794623 24.97722791 -3.5 26.125 C0.19205684 26.4331141 3.80523816 26.35433005 7.5 26.125 C7.5 28.105 7.5 30.085 7.5 32.125 C0.00148605 33.99962849 -5.75123667 33.6978747 -12.5 30.125 C-15.41026937 27.91720944 -16.52947054 25.63383727 -17.5 22.125 C-18.08092864 16.13542543 -18.04853212 11.21122937 -14.5 6.125 C-10.04179419 1.5294265 -6.30792429 -0.02160248 0 0 Z " fill="#050505" transform="translate(129.5,262.875)"/>
<path d="M0 0 C0 1.98 0 3.96 0 6 C-3.63 6 -7.26 6 -11 6 C-11.45504257 9.98492259 -11.45504257 9.98492259 -9.06640625 12.0703125 C-8.24011719 12.74835938 -7.41382813 13.42640625 -6.5625 14.125 C-2.07754011 17.84491979 -2.07754011 17.84491979 -1 20 C-0.42420682 26.21856639 -0.42420682 26.21856639 -2.75 29.375 C-7.35220232 32.69881279 -12.53154726 32.25298892 -18 32 C-21.0625 31.5 -21.0625 31.5 -23 31 C-23 29.02 -23 27.04 -23 25 C-21.84371094 25.01740234 -21.84371094 25.01740234 -20.6640625 25.03515625 C-19.15972656 25.04869141 -19.15972656 25.04869141 -17.625 25.0625 C-16.12839844 25.07990234 -16.12839844 25.07990234 -14.6015625 25.09765625 C-12.01567547 25.18006602 -12.01567547 25.18006602 -10 24 C-10.50895718 19.94651958 -12.4365974 18.42460406 -15.5 15.875 C-20.84898948 11.3892968 -20.84898948 11.3892968 -21.3125 7.125 C-21 4 -21 4 -19.125 1.6875 C-13.83878364 -2.5103777 -6.30300763 -1.68080204 0 0 Z " fill="#060606" transform="translate(448,339)"/>
<path d="M0 0 C0 1.98 0 3.96 0 6 C-3.63 6 -7.26 6 -11 6 C-11.45504257 9.98492259 -11.45504257 9.98492259 -9.06640625 12.0703125 C-8.24011719 12.74835938 -7.41382813 13.42640625 -6.5625 14.125 C-2.07754011 17.84491979 -2.07754011 17.84491979 -1 20 C-0.42420682 26.21856639 -0.42420682 26.21856639 -2.75 29.375 C-7.35220232 32.69881279 -12.53154726 32.25298892 -18 32 C-21.0625 31.5 -21.0625 31.5 -23 31 C-23 29.02 -23 27.04 -23 25 C-21.84371094 25.01740234 -21.84371094 25.01740234 -20.6640625 25.03515625 C-19.15972656 25.04869141 -19.15972656 25.04869141 -17.625 25.0625 C-16.12839844 25.07990234 -16.12839844 25.07990234 -14.6015625 25.09765625 C-12.01567547 25.18006602 -12.01567547 25.18006602 -10 24 C-10.50895718 19.94651958 -12.4365974 18.42460406 -15.5 15.875 C-20.84898948 11.3892968 -20.84898948 11.3892968 -21.3125 7.125 C-21 4 -21 4 -19.125 1.6875 C-13.83878364 -2.5103777 -6.30300763 -1.68080204 0 0 Z " fill="#060606" transform="translate(303,339)"/>
<path d="M0 0 C0 1.98 0 3.96 0 6 C-3.63 6 -7.26 6 -11 6 C-11.45504257 9.98492259 -11.45504257 9.98492259 -9.06640625 12.0703125 C-8.24011719 12.74835938 -7.41382813 13.42640625 -6.5625 14.125 C-2.07754011 17.84491979 -2.07754011 17.84491979 -1 20 C-0.42420682 26.21856639 -0.42420682 26.21856639 -2.75 29.375 C-7.35220232 32.69881279 -12.53154726 32.25298892 -18 32 C-21.0625 31.5 -21.0625 31.5 -23 31 C-23 29.02 -23 27.04 -23 25 C-21.84371094 25.01740234 -21.84371094 25.01740234 -20.6640625 25.03515625 C-19.15972656 25.04869141 -19.15972656 25.04869141 -17.625 25.0625 C-16.12839844 25.07990234 -16.12839844 25.07990234 -14.6015625 25.09765625 C-12.01567547 25.18006602 -12.01567547 25.18006602 -10 24 C-10.50895718 19.94651958 -12.4365974 18.42460406 -15.5 15.875 C-20.84898948 11.3892968 -20.84898948 11.3892968 -21.3125 7.125 C-21 4 -21 4 -19.125 1.6875 C-13.83878364 -2.5103777 -6.30300763 -1.68080204 0 0 Z " fill="#060606" transform="translate(784,264)"/>
<path d="M0 0 C0 1.98 0 3.96 0 6 C-3.63 6 -7.26 6 -11 6 C-11.45504257 9.98492259 -11.45504257 9.98492259 -9.06640625 12.0703125 C-8.24011719 12.74835938 -7.41382813 13.42640625 -6.5625 14.125 C-2.07754011 17.84491979 -2.07754011 17.84491979 -1 20 C-0.42420682 26.21856639 -0.42420682 26.21856639 -2.75 29.375 C-7.35220232 32.69881279 -12.53154726 32.25298892 -18 32 C-21.0625 31.5 -21.0625 31.5 -23 31 C-23 29.02 -23 27.04 -23 25 C-21.84371094 25.01740234 -21.84371094 25.01740234 -20.6640625 25.03515625 C-19.15972656 25.04869141 -19.15972656 25.04869141 -17.625 25.0625 C-16.12839844 25.07990234 -16.12839844 25.07990234 -14.6015625 25.09765625 C-12.01567547 25.18006602 -12.01567547 25.18006602 -10 24 C-10.50895718 19.94651958 -12.4365974 18.42460406 -15.5 15.875 C-20.84898948 11.3892968 -20.84898948 11.3892968 -21.3125 7.125 C-21 4 -21 4 -19.125 1.6875 C-13.83878364 -2.5103777 -6.30300763 -1.68080204 0 0 Z " fill="#060606" transform="translate(244,264)"/>
<path d="M0 0 C0 1.98 0 3.96 0 6 C-3.63 6 -7.26 6 -11 6 C-11.45504257 9.98492259 -11.45504257 9.98492259 -9.06640625 12.0703125 C-8.24011719 12.74835938 -7.41382812 13.42640625 -6.5625 14.125 C-2.07754011 17.84491979 -2.07754011 17.84491979 -1 20 C-0.42420682 26.21856639 -0.42420682 26.21856639 -2.75 29.375 C-7.35220232 32.69881279 -12.53154726 32.25298892 -18 32 C-21.0625 31.5 -21.0625 31.5 -23 31 C-23 29.02 -23 27.04 -23 25 C-21.84371094 25.01740234 -21.84371094 25.01740234 -20.6640625 25.03515625 C-19.15972656 25.04869141 -19.15972656 25.04869141 -17.625 25.0625 C-16.12839844 25.07990234 -16.12839844 25.07990234 -14.6015625 25.09765625 C-12.01567547 25.18006602 -12.01567547 25.18006602 -10 24 C-10.50895718 19.94651958 -12.4365974 18.42460406 -15.5 15.875 C-20.84898948 11.3892968 -20.84898948 11.3892968 -21.3125 7.125 C-21 4 -21 4 -19.125 1.6875 C-13.83878364 -2.5103777 -6.30300763 -1.68080204 0 0 Z " fill="#060606" transform="translate(108,264)"/>
<path d="M0 0 C0 2.31 0 4.62 0 7 C-1.60875 7.0928125 -1.60875 7.0928125 -3.25 7.1875 C-6.99726008 7.67911749 -6.99726008 7.67911749 -9.1875 9.9375 C-11.71645181 14.21055651 -11.66988953 17.92940271 -11.75 22.8125 C-11.77964844 23.69615234 -11.80929687 24.57980469 -11.83984375 25.49023438 C-11.9102039 27.65967218 -11.95740607 29.82983948 -12 32 C-14.97 32 -17.94 32 -21 32 C-20.67 21.77 -20.34 11.54 -20 1 C-17.36 1 -14.72 1 -12 1 C-11.67 1.99 -11.34 2.98 -11 4 C-10.484375 3.34 -9.96875 2.68 -9.4375 2 C-6.20004245 -0.65637543 -4.07447719 -0.31342132 0 0 Z " fill="#090909" transform="translate(698,338)"/>
<path d="M0 0 C0 2.31 0 4.62 0 7 C-1.60875 7.0928125 -1.60875 7.0928125 -3.25 7.1875 C-6.99726008 7.67911749 -6.99726008 7.67911749 -9.1875 9.9375 C-11.71645181 14.21055651 -11.66988953 17.92940271 -11.75 22.8125 C-11.77964844 23.69615234 -11.80929687 24.57980469 -11.83984375 25.49023438 C-11.9102039 27.65967218 -11.95740607 29.82983948 -12 32 C-14.97 32 -17.94 32 -21 32 C-20.67 21.77 -20.34 11.54 -20 1 C-17.36 1 -14.72 1 -12 1 C-11.67 1.99 -11.34 2.98 -11 4 C-10.484375 3.34 -9.96875 2.68 -9.4375 2 C-6.20004245 -0.65637543 -4.07447719 -0.31342132 0 0 Z " fill="#090909" transform="translate(681,263)"/>
<path d="M0 0 C2.75718845 1.08428759 3.64062362 2.25286051 5.0859375 4.8203125 C5.89145431 8.88817238 5.90383539 12.97368081 4.20703125 16.8046875 C1.9894296 19.87859078 0.27256918 20.78365271 -3.4140625 21.5078125 C-6.9140625 20.8203125 -6.9140625 20.8203125 -9.8515625 18.9453125 C-12.75924768 14.53972889 -12.90303725 10.95317318 -11.9140625 5.8203125 C-9.54223707 -0.03548618 -5.78182152 -0.76959399 0 0 Z " fill="#F5F5F5" transform="translate(366.9140625,344.1796875)"/>
<path d="M0 0 C2.75718845 1.08428759 3.64062362 2.25286051 5.0859375 4.8203125 C5.89145431 8.88817238 5.90383539 12.97368081 4.20703125 16.8046875 C1.9894296 19.87859078 0.27256918 20.78365271 -3.4140625 21.5078125 C-6.9140625 20.8203125 -6.9140625 20.8203125 -9.8515625 18.9453125 C-12.75924768 14.53972889 -12.90303725 10.95317318 -11.9140625 5.8203125 C-9.54223707 -0.03548618 -5.78182152 -0.76959399 0 0 Z " fill="#F5F5F5" transform="translate(743.9140625,269.1796875)"/>
<path d="M0 0 C2.75718845 1.08428759 3.64062362 2.25286051 5.0859375 4.8203125 C5.89145431 8.88817238 5.90383539 12.97368081 4.20703125 16.8046875 C1.9894296 19.87859078 0.27256918 20.78365271 -3.4140625 21.5078125 C-6.9140625 20.8203125 -6.9140625 20.8203125 -9.8515625 18.9453125 C-12.75924768 14.53972889 -12.90303725 10.95317318 -11.9140625 5.8203125 C-9.54223707 -0.03548618 -5.78182152 -0.76959399 0 0 Z " fill="#F5F5F5" transform="translate(449.9140625,269.1796875)"/>
<path d="M0 0 C2.75718845 1.08428759 3.64062362 2.25286051 5.0859375 4.8203125 C5.89145431 8.88817238 5.90383539 12.97368081 4.20703125 16.8046875 C1.9894296 19.87859078 0.27256918 20.78365271 -3.4140625 21.5078125 C-6.9140625 20.8203125 -6.9140625 20.8203125 -9.8515625 18.9453125 C-12.75924768 14.53972889 -12.90303725 10.95317318 -11.9140625 5.8203125 C-9.54223707 -0.03548618 -5.78182152 -0.76959399 0 0 Z " fill="#F5F5F5" transform="translate(163.9140625,269.1796875)"/>
<path d="M0 0 C0.76441406 0.07605469 1.52882813 0.15210938 2.31640625 0.23046875 C4.91926742 0.94469769 5.8917835 1.59810363 7.4375 3.8125 C8.19655994 8.61987963 7.91807819 13.31069317 6.4375 17.9375 C3.87174962 20.34289098 1.93128512 20.92676242 -1.5546875 21.11328125 C-3.5625 20.8125 -3.5625 20.8125 -6.5625 18.6875 C-10.01381691 13.83949632 -8.93933765 7.45669055 -8.5625 1.8125 C-5.49109569 0.00044142 -3.53472701 -0.41268386 0 0 Z " fill="#F6F6F6" transform="translate(325.5625,344.1875)"/>
<path d="M0 0 C0.76441406 0.07605469 1.52882813 0.15210938 2.31640625 0.23046875 C4.91926742 0.94469769 5.8917835 1.59810363 7.4375 3.8125 C8.19655994 8.61987963 7.91807819 13.31069317 6.4375 17.9375 C3.87174962 20.34289098 1.93128512 20.92676242 -1.5546875 21.11328125 C-3.5625 20.8125 -3.5625 20.8125 -6.5625 18.6875 C-10.01381691 13.83949632 -8.93933765 7.45669055 -8.5625 1.8125 C-5.49109569 0.00044142 -3.53472701 -0.41268386 0 0 Z " fill="#F6F6F6" transform="translate(391.5625,269.1875)"/>
<path d="M0 0 C2.97 0 5.94 0 9 0 C9 10.23 9 20.46 9 31 C5.7 31 2.4 31 -1 31 C-0.67 20.77 -0.34 10.54 0 0 Z " fill="#101010" transform="translate(469,264)"/>
<path d="M0 0 C2.97 0 5.94 0 9 0 C9 10.23 9 20.46 9 31 C5.7 31 2.4 31 -1 31 C-0.67 20.77 -0.34 10.54 0 0 Z " fill="#101010" transform="translate(414,264)"/>
<path d="M0 0 C2.97 0 5.94 0 9 0 C9 10.23 9 20.46 9 31 C5.7 31 2.4 31 -1 31 C-0.67 20.77 -0.34 10.54 0 0 Z " fill="#101010" transform="translate(251,264)"/>
<path d="M0 0 C2.97 0 5.94 0 9 0 C9 10.23 9 20.46 9 31 C5.7 31 2.4 31 -1 31 C-0.67 20.77 -0.34 10.54 0 0 Z " fill="#101010" transform="translate(70,264)"/>
<path d="M0 0 C0.66 0.33 1.32 0.66 2 1 C2.57446809 14.14893617 2.57446809 14.14893617 -1 19 C-3.89753434 21.12485852 -6.4593329 21.53110007 -10 21 C-12.3125 19.625 -12.3125 19.625 -14 17 C-14.76833321 12.84530933 -15.00058197 8.84240001 -12.94140625 5.05078125 C-8.88293126 0.07704187 -6.22237801 -0.22222779 0 0 Z " fill="#F8F8F8" transform="translate(707,269)"/>
<path d="M0 0 C0.66 0.33 1.32 0.66 2 1 C2.57446809 14.14893617 2.57446809 14.14893617 -1 19 C-3.89753434 21.12485852 -6.4593329 21.53110007 -10 21 C-12.3125 19.625 -12.3125 19.625 -14 17 C-14.76833321 12.84530933 -15.00058197 8.84240001 -12.94140625 5.05078125 C-8.88293126 0.07704187 -6.22237801 -0.22222779 0 0 Z " fill="#F8F8F8" transform="translate(507,269)"/>
<path d="M0 0 C1 1 1 1 1 6 C-3.62 6 -8.24 6 -13 6 C-9.85499986 -1.86250036 -7.37196478 -1.30792923 0 0 Z " fill="#F4F4F4" transform="translate(663,344)"/>
<path d="M0 0 C1 1 1 1 1 6 C-3.62 6 -8.24 6 -13 6 C-9.85499986 -1.86250036 -7.37196478 -1.30792923 0 0 Z " fill="#F4F4F4" transform="translate(565,344)"/>
<path d="M0 0 C1 1 1 1 1 6 C-3.62 6 -8.24 6 -13 6 C-9.85499986 -1.86250036 -7.37196478 -1.30792923 0 0 Z " fill="#F4F4F4" transform="translate(474,344)"/>
<path d="M0 0 C1 1 1 1 1 6 C-3.62 6 -8.24 6 -13 6 C-9.85499986 -1.86250036 -7.37196478 -1.30792923 0 0 Z " fill="#F4F4F4" transform="translate(267,344)"/>
<path d="M0 0 C1 1 1 1 1 6 C-3.62 6 -8.24 6 -13 6 C-9.85499986 -1.86250036 -7.37196478 -1.30792923 0 0 Z " fill="#F4F4F4" transform="translate(811,269)"/>
<path d="M0 0 C1 1 1 1 1 6 C-3.62 6 -8.24 6 -13 6 C-9.85499986 -1.86250036 -7.37196478 -1.30792923 0 0 Z " fill="#F4F4F4" transform="translate(646,269)"/>
<path d="M0 0 C2.97 0 5.94 0 9 0 C9 1.98 9 3.96 9 6 C6.03 6 3.06 6 0 6 C0 4.02 0 2.04 0 0 Z " fill="#080808" transform="translate(470,252)"/>
<path d="M0 0 C2.97 0 5.94 0 9 0 C9 1.98 9 3.96 9 6 C6.03 6 3.06 6 0 6 C0 4.02 0 2.04 0 0 Z " fill="#080808" transform="translate(415,252)"/>
<path d="M0 0 C2.97 0 5.94 0 9 0 C9 1.98 9 3.96 9 6 C6.03 6 3.06 6 0 6 C0 4.02 0 2.04 0 0 Z " fill="#080808" transform="translate(252,252)"/>
<path d="M0 0 C2.97 0 5.94 0 9 0 C9 1.98 9 3.96 9 6 C6.03 6 3.06 6 0 6 C0 4.02 0 2.04 0 0 Z " fill="#080808" transform="translate(71,252)"/>
</svg>
